<?xml version="1.0" standalone="no"?><!DOCTYPE svg PUBLIC "-//W3C//DTD SVG 1.1//EN" "http://www.w3.org/Graphics/SVG/1.1/DTD/svg11.dtd"><svg t="1752380676500" class="icon" viewBox="0 0 3072 1024" version="1.1" xmlns="http://www.w3.org/2000/svg" p-id="13614" xmlns:xlink="http://www.w3.org/1999/xlink" width="600" height="200"><path d="M3004.736 334.592a279.36 279.36 0 0 0-441.408 0 289.792 289.792 0 0 0-52.48 170.56 289.792 289.792 0 0 0 52.48 170.56 279.36 279.36 0 0 0 441.408 0c34.944-49.92 53.312-109.568 52.48-170.56a289.984 289.984 0 0 0-52.48-170.56z m-87.424 234.56c-20.096 59.904-67.648 106.56-133.504 108.096-65.92 1.472-113.472-48.192-133.248-108.16a197.696 197.696 0 0 1 0-127.936c20.032-59.904 67.584-106.56 133.248-108.096 65.664-1.472 113.408 48.192 133.504 108.16 14.08 41.344 14.08 86.272 0 127.68v0.256zM907.52 769.536c0 8.768-7.04 15.808-15.808 15.808h-91.712a15.808 15.808 0 0 1-15.744-15.808V15.808c0-8.768 7.04-15.808 15.744-15.808h91.712c8.704 0 15.808 7.04 15.808 15.808v753.728z m-215.424 0c0 8.768-7.04 15.808-15.744 15.808H584.704a15.808 15.808 0 0 1-15.744-15.808V15.808c0-8.64 6.912-15.68 15.552-15.808h91.712c8.704 0 15.744 7.04 15.744 15.808v753.728h0.192zM2490.24 257.792v64a16.64 16.64 0 0 1-21.312 18.112c-103.68-21.312-167.424 24.704-167.424 120.448v309.184c0 8.768-7.04 15.808-15.744 15.808H2193.92a15.808 15.808 0 0 1-15.744-15.808V453.76a213.248 213.248 0 0 1 67.584-159.68 238.016 238.016 0 0 1 167.808-67.84c21.44 0 42.88 2.048 64 5.952 10.88 3.648 12.544 10.048 12.544 26.432v-0.832zM2097.6 504.96a285.952 285.952 0 0 0-52.48-170.624 279.36 279.36 0 0 0-441.344 0 300.032 300.032 0 0 0 0 341.184 271.424 271.424 0 0 0 220.672 108.16 281.472 281.472 0 0 0 157.184-47.36v67.328c0 91.52-80 108.16-131.2 111.36a602.624 602.624 0 0 1-105.28-5.76c-14.08-2.176-23.872 0-23.872 15.104v81.024a13.888 13.888 0 0 0 14.464 13.248c118.784 10.24 198.72 8.128 258.88-26.24a195.776 195.776 0 0 0 87.68-111.488c10.624-36.16 15.68-73.664 15.104-111.36V504.96h0.192z m-273.152 171.84c-65.92 0-113.408-48.192-133.44-108.16a197.696 197.696 0 0 1 0-127.872c20.032-59.904 67.584-108.16 133.44-108.16 147.328 0 152.32 150.4 152.32 172.16 0 21.76-4.992 172.032-152.32 172.032zM484.928 449.728c0-72.704-16.192-128-51.2-166.144-34.944-38.144-105.344-57.152-170.56-57.152a369.792 369.792 0 0 0-186.56 49.728 11.712 11.712 0 0 0-5.76 10.24l4.864 80.128a14.272 14.272 0 0 0 23.488 8.32c80-49.28 175.872-58.432 224.704-33.664 27.392 15.744 43.84 45.44 42.688 76.992v11.712H233.28c-57.344 0-233.024 21.312-233.024 182.72V614.4c-2.816 49.792 18.368 97.92 56.96 129.664a225.152 225.152 0 0 0 142.4 40.704h269.76c8.704 0 15.744-7.04 15.744-15.808V449.088l-0.192 0.64z m-118.4 236.48H207.36a98.56 98.56 0 0 1-56.512-19.84 62.72 62.72 0 0 1-26.624-52.48c0-28.8 19.392-86.4 116.416-86.4h126.016v158.72z m878.592-459.776c-163.2 0-234.56 109.44-257.408 201.984-6.272 24.96-9.408 50.56-9.344 76.288a289.984 289.984 0 0 0 52.48 170.624 280 280 0 0 0 220.672 108.096c88.064 3.2 146.88-11.712 191.872-37.312a24.96 24.96 0 0 0 10.688-27.072v-71.04c0-14.464-8.768-21.312-21.312-12.544-52.672 33.728-115.2 48.768-177.408 42.624a145.216 145.216 0 0 1-142.464-129.408h362.496a14.912 14.912 0 0 0 14.912-14.72c6.4-99.2-22.4-307.52-245.184-307.52zM1114.816 450.56a123.264 123.264 0 0 1 130.56-117.504A109.632 109.632 0 0 1 1361.28 450.56h-246.528z" fill="#FF5A00" p-id="13615"></path></svg>