<?xml version="1.0" standalone="no"?><!DOCTYPE svg PUBLIC "-//W3C//DTD SVG 1.1//EN" "http://www.w3.org/Graphics/SVG/1.1/DTD/svg11.dtd"><svg t="1752380764689" class="icon" viewBox="0 0 1024 1024" version="1.1" xmlns="http://www.w3.org/2000/svg" p-id="22595" xmlns:xlink="http://www.w3.org/1999/xlink" width="200" height="200"><path d="M163.541333 56.874667a42.368 42.368 0 0 0-14.208 2.602666V42.666667c0-23.509333 19.157333-42.666667 42.666667-42.666667h625.792c23.509333 0 42.666667 19.157333 42.666667 42.666667v14.208H163.541333z m739.584 99.584H120.874667c-23.509333 0-42.666667 19.157333-42.666667 42.666666V981.333333c0 23.509333 19.157333 42.666667 42.666667 42.666667h311.466666l46.848-240.853333h-95.573333c-2.176 0-220.074667-10.282667-220.074667-10.282667l197.930667-13.952-3.328-15.616-84.394667-12.16 80.298667-6.741333-5.290667-19.157334-131.2-19.925333s142.549333-15.914667 144.725334-15.914667h137.898666l10.538667-56.789333c12.330667-68.949333 40.32-119.765333 84.181333-157.568 44.074667-38.058667 100.010667-56.832 167.978667-56.832 27.434667 0 44.928 6.442667 52.522667 19.754667 5.034667 7.936 8.576 22.016 11.904 36.650666 3.157333 15.018667 5.973333 28.629333 4.053333 38.528-2.432 14.72-19.669333 19.84-51.072 19.84h-10.794667c-56.618667 0-91.050667 32.554667-102.613333 98.56l-10.368 57.813334h65.706667c24.490667 0 33.322667 17.152 26.538666 55.722666-7.253333 40.149333-22.997333 58.026667-47.402666 58.026667H635.733333L588.970667 1024h314.112c23.509333 0 42.666667-19.157333 42.666666-42.666667V199.125333a42.666667 42.666667 0 0 0-42.624-42.666666zM874.666667 99.541333A14.250667 14.250667 0 0 0 860.458667 85.333333H163.541333a14.250667 14.250667 0 0 0-14.208 14.208V128h725.333334v-28.458667z" p-id="22596" fill="#1296db"></path></svg>