<?xml version="1.0" standalone="no"?><!DOCTYPE svg PUBLIC "-//W3C//DTD SVG 1.1//EN" "http://www.w3.org/Graphics/SVG/1.1/DTD/svg11.dtd"><svg t="1752380827051" class="icon" viewBox="0 0 3413 1024" version="1.1" xmlns="http://www.w3.org/2000/svg" p-id="24894" xmlns:xlink="http://www.w3.org/1999/xlink" width="666.6015625" height="200"><path d="M425.756444 865.28c-46.648889-26.737778-394.183111-243.655111-407.779555-250.140444A31.857778 31.857778 0 0 1 0 589.710222V285.866667c0-11.605333 5.006222-21.731556 15.075556-28.273778l2.844444-1.479111c33.792-21.048889 145.806222-89.201778 163.726222-98.588445a26.737778 26.737778 0 0 1 26.567111-0.739555c8.647111 4.323556 157.240889 102.229333 181.646223 110.933333 16.497778 7.964444 35.214222 11.605333 53.873777 11.605333 20.821333 0.739556 41.642667-4.323556 60.302223-14.506666 23.722667-12.288 173.795556-107.292444 175.900444-107.292445a24.007111 24.007111 0 0 1 12.231111-3.640889c5.006222 0 9.329778 1.422222 13.653333 3.640889 20.081778 11.605333 160.085333 96.426667 165.831112 100.067556a32.312889 32.312889 0 0 1 15.815111 28.273778v303.843555a32.995556 32.995556 0 0 1-17.976889 25.429334c-12.913778 7.224889-359.708444 224.085333-407.096889 250.197333a39.367111 39.367111 0 0 1-17.92 5.063111 42.325333 42.325333 0 0 1-18.716445-5.12z" fill="#F65636" p-id="24895"></path><path d="M691.541333 153.6a29.582222 29.582222 0 0 1 13.653334 3.640889c20.195556 11.605333 160.654222 96.483556 166.4 100.124444a32.312889 32.312889 0 0 1 15.872 28.273778v304.014222a32.995556 32.995556 0 0 1-18.033778 25.372445c-6.485333 3.640889-96.483556 59.505778-190.862222 118.272l-35.271111 21.731555c-82.887111 50.801778-160.654222 98.702222-181.532445 110.307556a39.594667 39.594667 0 0 1-18.033778 5.063111V279.096889h8.647111c18.033778-0.682667 35.271111-5.802667 51.882667-14.506667 10.069333-5.12 41.016889-24.632889 74.922667-44.942222l17.237333-10.183111c42.496-26.168889 83.626667-51.484444 84.309333-51.484445 2.161778-3.640889 6.485333-4.380444 10.808889-4.380444z" fill="#FB25A9" p-id="24896"></path><path d="M443.733333 836.266667h1.422223a39.480889 39.480889 0 0 0 17.92-4.209778c46.648889-26.055111 393.557333-236.316444 406.471111-242.688a29.923556 29.923556 0 0 0 17.92-24.576v-294.684445a31.516444 31.516444 0 0 0-3.584-14.108444L443.733333 489.528889V836.266667" fill="#F50197" p-id="24897"></path><path d="M443.733333 836.266667h-2.161777a39.765333 39.765333 0 0 1-18.090667-4.266667c-46.933333-26.282667-392.419556-236.487111-405.390222-242.915556A30.151111 30.151111 0 0 1 0 564.963556V270.222222a31.857778 31.857778 0 0 1 3.640889-14.222222l439.352889 233.642667L443.733333 836.266667z" fill="#F14918" p-id="24898"></path><path d="M1281.706667 641.763556V232.220444H1194.666667v493.795556h231.765333v-84.195556H1281.706667z m703.032889 9.784888l185.799111-221.411555V361.585778h-288.426667v75.434666h183.751111l-188.700444 223.345778v65.649778h298.268444v-74.467556h-190.691555z m-248.376889-289.962666v45.056a160.995556 160.995556 0 0 0-116.337778-50.005334c-94.833778 0-172.088889 84.309333-172.088889 188.131556 0 103.879111 77.255111 188.131556 172.088889 188.131556a160.995556 160.995556 0 0 0 116.337778-50.005334v43.121778h82.147555V361.585778h-82.147555z m-98.759111 299.804444c-59.619556 0-107.52-51.939556-107.52-115.655111 0-63.715556 47.900444-115.598222 107.52-115.598222 59.676444 0 107.576889 51.939556 107.576888 115.598222 0 63.715556-47.900444 115.655111-107.52 115.655111z m851.683555-299.804444v45.056a160.995556 160.995556 0 0 0-116.337778-50.005334c-94.833778 0-172.088889 84.309333-172.088889 188.131556 0 103.879111 77.255111 188.131556 172.088889 188.131556a160.995556 160.995556 0 0 0 116.337778-50.005334v43.121778h82.147556V361.585778h-82.147556z m-98.759111 299.804444c-59.619556 0-107.52-51.939556-107.52-115.655111 0-63.715556 47.900444-115.598222 107.52-115.598222 59.676444 0 107.52 51.939556 107.52 115.598222 0 63.715556-47.843556 115.655111-107.52 115.655111z m940.657778-299.804444v45.056a160.995556 160.995556 0 0 0-116.337778-50.005334c-94.833778 0-172.088889 84.309333-172.088889 188.131556 0 103.879111 77.255111 188.131556 172.088889 188.131556a160.995556 160.995556 0 0 0 116.337778-50.005334v43.121778H3413.333333V361.585778h-82.147555z m-98.759111 299.804444c-59.619556 0-107.52-51.939556-107.52-115.655111 0-63.715556 47.900444-115.598222 107.52-115.598222 59.676444 0 107.52 51.939556 107.52 115.598222 0 63.715556-47.843556 115.655111-107.52 115.655111zM2910.72 204.8v202.808889a160.995556 160.995556 0 0 0-116.337778-49.948445c-94.833778 0-172.088889 84.195556-172.088889 188.074667S2699.548444 733.866667 2794.382222 733.866667a160.995556 160.995556 0 0 0 116.337778-49.948445v43.064889h79.246222V204.8h-79.246222z m-98.759111 456.590222c-59.619556 0-107.52-51.939556-107.52-115.655111 0-63.715556 47.900444-115.598222 107.52-115.598222 59.676444 0 107.576889 51.939556 107.576889 115.598222 0 63.715556-48.924444 115.655111-107.52 115.655111z" fill="#0F136E" p-id="24899"></path></svg>