<?xml version="1.0" standalone="no"?><!DOCTYPE svg PUBLIC "-//W3C//DTD SVG 1.1//EN" "http://www.w3.org/Graphics/SVG/1.1/DTD/svg11.dtd"><svg t="1752380699348" class="icon" viewBox="0 0 1024 1024" version="1.1" xmlns="http://www.w3.org/2000/svg" p-id="14686" xmlns:xlink="http://www.w3.org/1999/xlink" width="200" height="200"><path d="M1024 494.848C1024 310.4 794.816 160 512.032 160 229.28 160 0.064 310.4 0.064 494.848L0 514.464c0 195.712 200.32 354.24 511.968 354.24C825.504 868.704 1024 710.208 1024 514.56v-19.68z" fill="#163261" p-id="14687"></path><path d="M1004.416 494.72c0 173.888-220.416 314.88-492.288 314.88C240.224 809.6 19.872 668.672 19.872 494.72c0-173.952 220.352-314.976 492.256-314.976 271.872 0 492.288 141.024 492.288 314.976" fill="#F4E028" p-id="14688"></path><path d="M348.672 395.36c-0.224 0.512-5.152 5.568-1.984 9.632 7.776 9.92 31.776 15.616 56 10.208 14.432-3.264 32.96-17.984 50.944-32.224 19.424-15.456 38.72-30.912 58.112-37.056 20.512-6.528 33.696-3.712 42.4-1.088 9.536 2.88 20.704 9.12 38.592 22.56 33.696 25.312 169.12 143.52 192.544 164 18.88-8.512 102.592-44.608 216.416-69.664-9.856-60.704-46.816-116.192-102.816-161.696-77.984 32.8-173.344 49.856-266.592 4.352-0.48-0.192-50.944-24.096-100.736-22.912-73.984 1.696-106.048 33.728-139.968 67.648l-42.88 46.24z" fill="#FFFFFF" p-id="14689"></path><path d="M779.776 544.192c-1.6-1.408-159.264-139.392-194.976-166.24-20.672-15.488-32.192-19.456-44.256-20.992a59.936 59.936 0 0 0-21.024 2.016c-16.64 4.544-38.4 19.04-57.632 34.368-19.968 15.904-38.816 30.912-56.32 34.816-22.304 4.992-49.536-0.928-61.984-9.344a27.68 27.68 0 0 1-10.304-11.264c-4.608-10.656 3.904-19.2 5.28-20.576l43.456-47.04c5.056-5.024 10.144-10.112 15.424-15.104-14.08 1.792-27.072 5.44-39.68 8.96-15.744 4.416-30.944 8.64-46.272 8.64-6.4 0-40.736-5.632-47.232-7.392-39.36-10.784-73.92-21.28-125.568-45.376-61.824 46.016-103.2 103.616-115.136 167.04 8.864 2.336 23.2 6.624 29.216 7.936 139.936 31.136 183.552 63.2 191.456 69.888 8.832-9.888 21.44-15.552 34.72-15.552 15.104 0.064 29.248 7.456 37.952 19.84 8-6.336 19.04-11.744 33.344-11.744 6.464 0 13.248 1.216 20.064 3.52 12.576 4.032 22.848 13.312 28.128 25.44a46.4 46.4 0 0 1 19.488-4.128c7.52 0 15.36 1.728 23.264 5.12 25.792 11.104 29.824 36.48 27.456 55.552a55.52 55.52 0 0 1 54.432 81.408c8.32 4.672 29.536 15.296 48.16 12.928 14.848-1.888 20.48-6.944 22.56-9.856 1.376-1.92 2.88-4.256 1.504-5.888l-39.488-43.84s-6.528-6.176-4.352-8.544c2.24-2.432 6.24 1.056 9.12 3.456 20.096 16.768 44.64 42.08 44.64 42.08 0.384 0.288 2.048 3.52 11.072 5.12 7.84 1.408 21.664 0.576 31.264-7.264 2.432-2.016 4.8-4.48 6.816-7.04-0.128 0.128-0.288 0.32-0.448 0.384 10.112-12.928-1.088-26.016-1.088-26.016l-46.112-51.904s-6.56-6.08-4.32-8.544c2.016-2.112 6.24 1.088 9.12 3.456 14.656 12.256 35.264 32.96 55.04 52.32 3.808 2.816 21.216 13.568 44.224-1.568 13.984-9.152 16.8-20.416 16.416-28.896-0.96-11.2-9.76-19.2-9.76-19.2l-63.008-63.36s-6.656-5.696-4.288-8.576c1.92-2.432 6.272 1.088 9.088 3.456 20.064 16.8 74.4 66.56 74.4 66.56 0.768 0.544 19.52 13.888 42.72-0.864 8.32-5.312 13.632-13.28 14.048-22.56 0.736-16.064-10.656-25.632-10.656-25.632" fill="#FFFFFF" p-id="14690"></path><path d="M474.24 624.448c-9.76-0.096-20.448 5.696-21.856 4.864-0.768-0.512 0.64-4.448 1.536-6.72 0.928-2.24 13.76-40.96-17.568-54.368-24-10.304-38.624 1.28-43.68 6.496-1.376 1.376-1.92 1.28-2.112-0.448-0.416-6.944-3.616-25.792-24.32-32.128-29.568-9.088-48.576 11.584-53.44 19.04a34.24 34.24 0 0 0-67.04-4.8 34.336 34.336 0 0 0 56.832 33.92c0.224 0.192 0.32 0.48 0.224 1.152-1.472 8.512-4.128 39.36 28.192 51.936 12.96 5.024 24 1.28 33.152-5.12 2.752-1.92 3.2-1.12 2.784 1.44-1.152 8 0.288 24.96 24.128 34.624 18.144 7.36 28.896-0.192 35.904-6.656 3.104-2.816 3.904-2.368 4.064 1.984a43.2 43.2 0 1 0 43.2-45.216" fill="#FFFFFF" p-id="14691"></path><path d="M474.24 707.776a39.808 39.808 0 0 1-40-38.24c-0.096-1.856-0.256-6.72-4.384-6.72-1.728 0-3.2 1.024-4.896 2.528-4.736 4.448-10.816 8.896-19.68 8.896a34.4 34.4 0 0 1-12.96-2.816c-22.88-9.28-23.168-24.96-22.24-31.264 0.288-1.696 0.32-3.424-0.8-4.8l-1.376-1.28h-1.472c-1.152 0-2.336 0.48-3.968 1.6-6.624 4.672-12.96 6.912-19.392 6.912a31.136 31.136 0 0 1-10.88-2.112c-30.08-11.712-27.712-40.128-26.24-48.64 0.256-1.76-0.192-3.104-1.28-4l-2.144-1.76-1.984 1.92a31.264 31.264 0 1 1-21.536-53.76c15.552 0.032 28.864 11.776 30.848 27.328l1.056 8.384 4.576-7.072c0.512-0.832 13.12-19.936 36.384-19.904 4.416 0 8.96 0.704 13.536 2.112 18.496 5.664 21.664 22.464 22.112 29.44 0.32 4.096 3.264 4.256 3.84 4.256 1.568 0 2.752-1.024 3.616-1.888a31.52 31.52 0 0 1 23.008-9.696c5.44 0 11.232 1.312 17.216 3.872 29.408 12.64 16.064 49.984 15.904 50.368-2.528 6.208-2.656 8.96-0.224 10.528l1.152 0.512h0.832c1.312 0 2.944-0.576 5.696-1.472 4.032-1.376 10.08-3.456 15.712-3.456 22.144 0.224 40.16 18.24 40.16 40.128a40.224 40.224 0 0 1-40.16 40.096m311.584-180.128c-48.608-42.4-160.8-139.936-191.2-162.784-17.376-13.056-29.248-19.936-39.648-23.04a66.56 66.56 0 0 0-19.456-3.04c-7.744 0-16.032 1.408-24.736 4.16-19.616 6.208-39.232 21.76-58.112 36.8l-0.992 0.736c-17.664 14.016-35.84 28.512-49.664 31.616a85.088 85.088 0 0 1-18.368 2.048c-15.456-0.032-29.312-4.48-34.528-11.104-0.896-1.088-0.32-2.88 1.696-5.44l0.256-0.32 42.72-46.016c33.504-33.472 65.12-65.056 137.856-66.72 1.184-0.064 2.432-0.064 3.648-0.064 45.248 0.064 90.56 20.32 95.648 22.656 42.464 20.704 86.304 31.232 130.368 31.296 45.92 0 93.28-11.392 143.104-34.336a420.608 420.608 0 0 0-17.312-13.696c-43.744 18.976-85.504 28.544-125.696 28.544-41.088-0.032-82.144-9.92-122.016-29.344-2.08-1.024-52.096-24.576-104.096-24.64l-4.16 0.064c-61.088 1.44-95.488 23.136-118.688 42.176-22.496 0.512-41.92 5.952-59.2 10.784-15.424 4.288-28.736 8-41.728 8-5.344 0-14.976-0.448-15.84-0.48-14.976-0.48-90.208-18.944-150.08-41.6-6.016 4.288-11.936 8.736-17.728 13.376 62.528 25.632 138.656 45.472 162.656 47.04 6.656 0.416 13.792 1.184 20.928 1.184 15.872 0 31.712-4.448 47.104-8.768 9.024-2.56 19.104-5.312 29.568-7.328-2.784 2.752-5.632 5.536-8.384 8.352l-43.424 46.976c-3.456 3.424-10.816 12.64-5.952 24 1.952 4.544 5.92 8.928 11.392 12.64 10.368 6.944 28.864 11.648 46.08 11.712 6.528 0 12.704-0.672 18.4-1.92 18.176-4.096 37.248-19.296 57.472-35.36 16.096-12.8 39.008-29.088 56.544-33.856 4.864-1.312 10.88-2.176 15.744-2.176 1.44 0 2.784 0.064 4.064 0.224 11.584 1.504 22.784 5.44 42.752 20.416 35.616 26.784 193.312 164.736 194.88 166.08 0.096 0.128 10.176 8.768 9.504 23.232-0.384 8-4.864 15.136-12.608 20.16a38.4 38.4 0 0 1-20.704 6.4c-6.464 0-12.8-1.824-18.272-5.28-0.576-0.448-54.592-49.984-74.464-66.624-3.2-2.624-6.272-4.992-9.376-4.992a5.12 5.12 0 0 0-4.128 1.92c-3.104 3.84 0.384 9.216 4.48 12.704l63.104 63.456c0.064 0.064 7.872 7.36 8.736 17.088 0.512 10.56-4.544 19.296-14.976 26.176-7.456 4.896-14.976 7.392-22.4 7.392-9.664 0-16.48-4.448-17.92-5.44l-9.088-8.96c-16.544-16.288-33.6-33.12-46.144-43.584-3.04-2.528-6.304-4.864-9.408-4.864a5.536 5.536 0 0 0-3.968 1.664c-1.44 1.6-2.4 4.416 1.12 9.152 1.472 1.952 3.2 3.552 3.2 3.552l46.08 51.712c0.384 0.448 9.44 11.264 0.992 22.08l-1.632 2.048a45.312 45.312 0 0 1-4.256 4.128c-7.872 6.4-18.368 7.168-22.528 7.168-2.24 0-4.384-0.192-6.208-0.512-4.544-0.864-7.616-2.112-9.056-3.84l-0.576-0.576a711.488 711.488 0 0 0-44.96-42.336c-2.528-2.144-5.664-4.8-8.928-4.8-1.6-0.032-3.104 0.64-4.16 1.824-3.808 4.16 1.92 10.4 4.352 12.64l39.296 43.328a8.512 8.512 0 0 1-1.536 2.688c-1.408 1.92-6.176 6.72-20.416 8.512a40.288 40.288 0 0 1-5.184 0.288c-14.72 0-30.4-7.136-38.432-11.424a58.656 58.656 0 0 0-52.992-83.552h-2.112c1.024-14.72-1.024-42.688-29.76-55.04a61.472 61.472 0 0 0-24.48-5.376 50.56 50.56 0 0 0-17.952 3.264 49.28 49.28 0 0 0-28.704-24.352 64.192 64.192 0 0 0-21.024-3.712c-11.936 0-22.944 3.52-32.736 10.496a49.632 49.632 0 0 0-38.56-18.56 49.92 49.92 0 0 0-34.976 14.432c-12.256-9.312-60.736-40.096-190.528-69.6-9.92-2.528-19.776-5.248-29.568-8.16-1.472 7.04-2.56 14.176-3.328 21.312 0 0 23.968 5.76 28.672 6.816 132.576 29.44 176.384 60.064 183.808 65.856A49.76 49.76 0 0 0 288 614.4c4.16 20.16 17.312 35.424 37.504 43.264 9.216 3.744 19.392 4.48 29.024 2.016 3.744 9.472 12.16 21.28 30.848 28.864 6.528 2.656 13.12 4.064 19.52 4.064 5.184 0 10.304-0.928 15.136-2.752a58.432 58.432 0 0 0 96.096 18.56c9.472 5.312 29.44 14.816 49.6 14.816 2.624 0 5.12-0.16 7.552-0.512 20.032-2.528 29.376-10.336 33.632-16.448a22.624 22.624 0 0 0 2.08-3.36c4.736 1.344 9.952 2.432 15.872 2.432 10.944 0 21.472-3.712 32.064-11.456 10.432-7.52 17.856-18.304 18.88-27.52l0.096-0.384c3.52 0.736 7.104 1.12 10.72 1.12 11.232 0 22.304-3.52 32.928-10.432 20.448-13.408 24-30.912 23.616-42.368 3.584 0.768 7.232 1.12 10.88 1.12 10.56 0 20.928-3.168 30.848-9.472a45.12 45.12 0 0 0 21.44-34.944 47.04 47.04 0 0 0-6.816-28.16c34.24-14.752 112.416-43.328 204.576-64.096a208.672 208.672 0 0 0-2.88-21.184c-111.36 24.832-194.496 60.864-215.36 70.112" fill="#163261" p-id="14692"></path></svg>