<?xml version="1.0" standalone="no"?><!DOCTYPE svg PUBLIC "-//W3C//DTD SVG 1.1//EN" "http://www.w3.org/Graphics/SVG/1.1/DTD/svg11.dtd"><svg t="1752381678056" class="icon" viewBox="0 0 1024 1024" version="1.1" xmlns="http://www.w3.org/2000/svg" p-id="53114" xmlns:xlink="http://www.w3.org/1999/xlink" width="200" height="200"><path d="M512 497.777778m-497.777778 0a497.777778 497.777778 0 1 0 995.555556 0 497.777778 497.777778 0 1 0-995.555556 0Z" fill="#04C43C" p-id="53115"></path><path d="M257.763556 271.075556c-2.56 1.792-2.247111 451.697778 0.284444 453.233777 2.417778 1.507556 169.329778 1.28 170.865778-0.199111 0.938667-0.910222 1.223111-27.306667 1.223111-112.867555 0-61.44 0.199111-111.701333 0.455111-111.701334 0.796444 0 6.257778 5.376 8.021333 7.879111l6.286223 8.874667a3461.404444 3461.404444 0 0 1 22.414222 31.544889c2.816 3.953778 6.826667 9.671111 8.931555 12.714667 2.104889 3.043556 4.522667 6.314667 5.347556 7.253333a7.68 7.68 0 0 1 1.507555 2.190222c0 0.625778 6.428444 9.756444 7.310223 10.410667 0.853333 0.597333 5.916444 7.765333 5.916444 8.334222 0 0.227556 2.787556 4.323556 6.172445 9.102222l7.879111 11.093334c0.938667 1.393778 2.275556 2.844444 2.986666 3.271111 0.711111 0.426667 1.308444 1.251556 1.308445 1.820444 0 0.568889 1.024 2.417778 2.275555 4.124445 1.28 1.706667 2.759111 3.811556 3.328 4.693333 2.190222 3.413333 4.551111 6.712889 7.082667 9.870222 1.137778 1.450667 2.275556 2.929778 3.356444 4.437334 10.069333 14.734222 11.52 16.810667 15.530667 22.328888a2589.923556 2589.923556 0 0 1 22.641778 31.857778c1.536 2.133333 4.551111 6.513778 6.769778 9.699556 5.262222 7.736889 6.257778 9.073778 9.528889 13.141333a16.782222 16.782222 0 0 1 2.787555 4.266667c0 0.426667 1.422222 2.133333 3.157333 3.811555l3.128889 3.043556 86.016-0.256c75.121778-0.227556 86.101333-0.455111 86.954667-1.735111 0.597333-0.910222 0.853333-85.845333 0.739556-226.730667l-0.256-225.251555-87.324445-0.256-87.324444-0.256v110.222222c0 117.048889 0.028444 116.280889-4.465778 112.668444-0.910222-0.711111-1.621333-1.763556-1.621333-2.332444 0-0.568889-0.768-1.848889-1.706667-2.844445a25.656889 25.656889 0 0 1-2.787556-3.697777c-1.365333-2.304-11.093333-16.156444-11.804444-16.839112-1.393778-1.28-11.207111-16.071111-11.207111-16.839111 0-0.512-0.455111-0.910222-0.995556-0.910222-0.568889 0-1.735111-1.393778-2.645333-3.128889a34.446222 34.446222 0 0 0-2.56-4.152889 113.152 113.152 0 0 1-9.073778-12.430222 113.777778 113.777778 0 0 0-5.546667-7.992889 86.186667 86.186667 0 0 1-3.356444-4.437333c-10.496-15.36-16.924444-24.462222-17.578667-25.031111a696.32 696.32 0 0 1-16.298666-23.125334 361.528889 361.528889 0 0 0-6.058667-8.561777l-9.671111-13.511111-9.472-13.312a1182.805333 1182.805333 0 0 1-15.018667-21.219556 253.212444 253.212444 0 0 0-9.585778-13.425778 62.435556 62.435556 0 0 1-4.721777-7.139555c-0.938667-1.763556-2.076444-3.214222-2.56-3.214223-0.426667 0-1.137778-0.995556-1.536-2.218666a18.631111 18.631111 0 0 0-2.844445-4.835556 1905.664 1905.664 0 0 1-4.039111-4.920889 29.127111 29.127111 0 0 1-2.958222-4.551111l-1.080889-2.190222h-84.792889c-46.648889 0-85.418667-0.227556-86.186667-0.512-0.739556-0.284444-2.161778 0.028444-3.128888 0.739556" fill="#FAFBFA" p-id="53116"></path></svg>