<?xml version="1.0" standalone="no"?><!DOCTYPE svg PUBLIC "-//W3C//DTD SVG 1.1//EN" "http://www.w3.org/Graphics/SVG/1.1/DTD/svg11.dtd"><svg t="1752380612729" class="icon" viewBox="0 0 4534 1024" version="1.1" xmlns="http://www.w3.org/2000/svg" p-id="9650" xmlns:xlink="http://www.w3.org/1999/xlink" width="885.546875" height="200"><path d="M193.261354 793.373322L290.440446 334.788917h10.41988l250.333047 458.511283h140.576978L860.27992 0h-193.261354l-98.275921 462.935161h-10.41988L311.280206 0H168.54613L0 793.373322h193.261354z m950.731791 14.258783c155.384176 0 268.467295-78.057698 298.118252-197.904599h-182.256498c-14.258783 35.72008-51.624107 57.729791-103.79663 57.729792-66.97972 0-116.373608-42.886033-116.373607-125.916024 0-2.193659 0-9.359612 0.548414-11.553271h419.976007c6.069123-30.784347 10.968295-78.057698 10.968295-102.809483 0-155.566981-114.728363-260.058269-271.721223-260.058269-200.390746 0-338.189089 151.728078-338.189088 375.517852 0 164.926592 113.083119 264.994002 282.726078 264.994002z m148.218223-388.679806h-232.1988c17.000857-67.637818 69.721794-113.265924 134.507855-113.265924 60.362182 0 99.372751 40.143959 99.37275 93.449872 0 7.165953-1.096829 16.489003-1.681805 19.816052z m503.846901 374.384462l179.002571-402.426735h10.41988l8.774636 402.426735h211.395601l287.661811-611.921165H2298.954584l-164.670665 419.500714h-10.968295l-4.387318-419.500714H1932.247929l-179.002571 418.403884h-10.41988l9.871466-418.403884h-192.164525l29.650957 611.921165h205.874893z m939.763496 14.295344c155.384176 0 268.467295-78.057698 298.118252-197.904599h-182.256498c-14.258783 35.72008-51.624107 57.729791-103.760069 57.729792-66.97972 0-116.410169-42.886033-116.410168-125.916024 0-2.193659 0-9.359612 0.548415-11.553271H3052.110825c6.032562-30.784347 10.968295-78.057698 10.968295-102.809483 0-155.566981-114.728363-260.058269-271.757783-260.058269-200.354185 0-338.189089 151.728078-338.189089 375.517852 0 164.926592 113.083119 264.994002 282.726078 264.994002z m148.254785-388.679806h-232.235362c17.000857-67.637818 69.721794-113.265924 134.507855-113.265924 60.398743 0 99.372751 40.143959 99.372751 93.449872 0 7.165953-1.096829 16.489003-1.645244 19.816052zM3354.43359 1023.707512c180.062839 0 301.957155-77.509283 329.414453-207.812625l135.604685-634.479291h-189.38589l-23.106541 104.491288h-10.41988c-21.424736-69.283062-89.501285-113.814339-172.933448-113.814339-167.997715 0-302.50557 168.765496-302.505569 382.647244 0 135.275636 84.528992 225.398458 205.874892 225.398457 77.948015 0 140.540417-29.139103 177.869181-83.541845h10.456441l-22.521566 106.099971c-12.613539 58.278206-54.366181 91.256213-126.830048 91.256213-67.528135 0-109.792631-24.20337-111.98629-59.92345h-189.385889C3059.569266 944.552985 3177.076264 1023.707512 3354.397029 1023.707512z m63.689232-375.481291c-59.850328 0-98.824336-45.664667-98.824336-117.689803 0-116.007998 64.786061-202.876892 147.121394-202.876892 60.947158 0 99.921165 45.664667 99.921165 116.007998 0 112.717509-67.528135 204.522137-148.218223 204.522136zM4068.506141 1023.707512c180.0994 0 301.993716-77.509283 329.414453-207.812625L4533.561839 181.415596h-189.385889l-23.06998 104.491288h-10.456441c-21.388175-69.283062-89.464724-113.814339-172.933448-113.814339-167.997715 0-302.50557 168.765496-302.50557 382.647244 0 135.275636 84.565553 225.398458 205.874893 225.398457 77.984576 0 140.576978-29.139103 177.905741-83.541845h10.41988l-22.521565 106.099971c-12.613539 58.278206-54.32962 91.256213-126.830048 91.256213-67.528135 0-109.792631-24.20337-111.98629-59.92345h-189.38589C3773.714939 944.552985 3891.185376 1023.707512 4068.506141 1023.707512z m63.689232-375.481291c-59.850328 0-98.824336-45.664667-98.824336-117.689803 0-116.007998 64.786061-202.876892 147.121394-202.876892 60.947158 0 99.921165 45.664667 99.921165 116.007998 0 112.717509-67.528135 204.522137-148.218223 204.522136z" fill="#181D29" p-id="9651"></path></svg>