<?xml version="1.0" standalone="no"?><!DOCTYPE svg PUBLIC "-//W3C//DTD SVG 1.1//EN" "http://www.w3.org/Graphics/SVG/1.1/DTD/svg11.dtd"><svg t="1752380661815" class="icon" viewBox="0 0 5505 1024" version="1.1" xmlns="http://www.w3.org/2000/svg" p-id="12632" xmlns:xlink="http://www.w3.org/1999/xlink" width="1075.1953125" height="200"><path d="M0.208448 56.90626c118.294148 1.928142 237.682646-5.523868 354.361323 8.181577 133.406616 15.633588 221.423715 101.826768 259.413333 229.709517 37.729059 127.101069-1.094351 237.005191-95.573333 328.305343-8.494249 8.181578-17.092723 16.102595-30.485496 28.661578l264.885089 353.735979c-71.966616 0-134.084071 2.761934-195.628295-1.719694-17.249059-1.302799-36.1657-21.313791-48.724682-37.155827-46.588092-58.834402-98.022595-115.480102-134.084071-180.411603-45.806412-82.44112-111.311145-86.245293-194.012825-71.289161v290.732621H0z m181.766514 472.030127c95.20855 1.407023 189.948092 24.857405 248.886717-73.373639a142.109313 142.109313 0 0 0-10.161832-160.817506c-47.473995-61.44-136.637557-80.148193-238.724885-49.141578zM1494.362545 1017.590229c-69.048346-12.715318-126.579949-24.023613-184.372112-33.351654-10.682952-1.719695-23.450382 2.39715-33.76855 7.087227-204.643664 92.602952-394.17486-36.843155-461.503511-206.415471-87.339644-220.173028 22.929262-478.179338 237.057302-540.922138 35.071349-10.422392 77.490483-19.646209 110.11257-9.32804 96.198677 30.485496 192.241018 8.963257 288.074911 13.288549 15.216692 0.677455 42.419135 19.541985 42.523359 30.224937 2.449262 240.44458 1.876031 480.993384 1.876031 739.41659z m-176.815878-390.266463h-1.563359c0-13.757557 0.990127-27.619338 0-41.272672-7.97313-92.707176-82.389008-174.939847-164.882239-182.912977-73.217303-7.035115-154.042952 50.392265-175.825751 138.253028a363.533028 363.533028 0 0 0-3.752061 155.918982c19.020865 92.655064 95.677557 154.407735 171.396234 152.635929 76.60458-1.771807 151.697913-73.269415 170.406107-163.892112 3.699949-19.125089 2.866158-39.188193 4.221069-58.730178zM1875.874198 694.131298v308.242239h-166.758269V0h163.527328v517.31542c28.609466-19.854656 48.255674-29.860153 63.316031-44.503613 63.680814-61.909008 123.765903-127.622188 189.948091-186.560815 23.710941-20.844784 60.032977-34.758677 92.081832-38.198066 56.280916-6.097099 113.708295-1.719695 186.039695-1.719694-22.095471 23.606718-35.38402 38.667074-49.558473 52.789414-85.255165 85.203053-169.311756 171.656794-256.755624 254.566921-36.478372 34.758677-40.647328 57.583715-1.459135 94.895878 104.484478 99.377506 204.8 203.236641 306.626769 305.32397 13.28855 13.340662 25.691196 27.619338 47.369771 51.173944-82.128448 0-152.427481 2.345038-222.309619-1.615471-18.239186-1.042239-37.989618-19.229313-52.476743-33.976997-93.801527-95.312774-186.300254-191.876234-279.215877-288.022799zM4696.017099 675.527328h-511.322544c5.211196 76.656692 45.49374 124.495471 106.099949 154.980967 91.977608 46.27542 167.644173 11.412519 235.38972-58.573842l142.995216 81.65944c-64.35827 124.182799-235.12916 198.546565-377.342697 160.348499-151.124682-40.543104-252.169771-138.982595-291.826972-290.055166-40.230433-152.948601-1.459135-292.191756 112.405496-401.262086 196.253639-187.603053 506.893028-77.177812 571.199186 200.0057a487.507379 487.507379 0 0 1 12.037863 69.621577c1.928142 25.170076 0.364784 50.496489 0.364783 83.274911z m-203.601425-159.566819c-22.668702-84.890382-74.936997-127.93486-146.330381-125.068702-74.989109 3.022494-135.491094 52.111959-151.541578 125.068702zM3151.939746 246.333232v748.327735c-5.732316 4.012621-8.754809 7.921018-12.037863 8.181578-104.484478 8.806921-209.229517 5.732316-314.183003 14.226564-179.890483 14.539237-328.305344-133.667176-334.506666-317.882951-4.481628-136.064326 0-272.389211-1.459135-408.609873-0.312672-33.195318 10.735064-46.27542 44.347277-44.607837 41.22056 2.084478 82.597455 0.52112 131.009466 0.521119 1.146463 23.919389 2.91827 44.712061 2.970382 65.452621 0.26056 124.391247-0.312672 248.730382 0.260559 373.121629 0.469008 95.833893 67.172316 165.768142 155.710535 164.934351 90.622697-0.885903 152.219033-67.745547 152.375369-166.75827 0.26056-124.391247 2.91827-248.834606-1.250687-373.069516-1.823919-54.196438 16.415267-70.090585 67.328651-64.514606 34.550229 3.960509 69.882137 0.677455 109.435115 0.677456zM5505.420051 1003.25944h-170.353995v-55.238677c0-122.410992 0.625344-244.926209 0-367.180865-0.729567-105.683053-64.983613-178.066565-156.335878-178.535572-95.052214-0.469008-160.087939 72.07084-160.556946 180.932722-0.625344 137.992468 0 276.193384 0 418.250586h-168.269517V254.306361c5.836539-2.501374 10.943511-6.409771 16.258931-6.722442 96.563461-5.211196 192.814249-2.240814 290.003054-12.298423 194.221272-20.115216 346.752977 128.143308 349.150127 323.823715 1.459135 145.809262 0.104224 291.983308 0.104224 444.150229zM3862.538422 422.784326h-257.902086c0 124.547583-4.898524 244.196641 2.188702 363.116132 3.230941 54.613333 74.520102 88.590331 111.206921 53.46687 51.017608-48.568346 95.729669-23.919389 144.819135-12.298422 20.844784 4.898524 41.012112 11.777303 61.335776 17.718066-24.232061 101.826768-116.991349 173.168041-226.061679 176.242646-120.74341 3.387277-228.45883-67.328651-258.006311-177.180661-12.50687-46.900763-12.454758-97.397252-13.809669-146.382494-2.345038-84.890382-1.250687-169.884987-1.928142-254.827481 0-3.491501-2.709822-7.035115-6.149211-15.268804l-117.82514-5.211196V246.750127h122.515216V61.283664h174.575063v184.736896h265.041425z" fill="#0099EF" p-id="12633"></path></svg>