<?xml version="1.0" standalone="no"?><!DOCTYPE svg PUBLIC "-//W3C//DTD SVG 1.1//EN" "http://www.w3.org/Graphics/SVG/1.1/DTD/svg11.dtd"><svg t="1752380859477" class="icon" viewBox="0 0 3072 1024" version="1.1" xmlns="http://www.w3.org/2000/svg" p-id="26981" xmlns:xlink="http://www.w3.org/1999/xlink" width="600" height="200"><path d="M1584.469333 543.701333c9.6 0 18.474667 4.522667 23.893334 12.373334l87.04 130.432 86.784-130.474667a29.226667 29.226667 0 0 1 23.893333-12.330667h24.661333a39.552 39.552 0 0 1 39.68 39.68v272.768a39.594667 39.594667 0 0 1-39.68 39.850667 39.850667 39.850667 0 0 1-39.850666-39.850667v-179.072l-67.072 94.592a35.072 35.072 0 0 1-57.088 0l-67.029334-94.592v179.072a39.850667 39.850667 0 0 1-79.573333 0v-272.768a39.552 39.552 0 0 1 39.68-39.68z m616.533334 0a39.552 39.552 0 0 1 39.68 39.68v163.669334C2240.853333 847.061333 2179.2 896 2082.048 896s-156.586667-49.493333-156.586667-146.602667v-165.973333a39.552 39.552 0 0 1 39.68-39.68 39.594667 39.594667 0 0 1 39.893334 39.68v164.138667c-0.170667 53.674667 29.354667 81.408 77.909333 81.408 48.554667 0.170667 78.08-26.666667 78.08-79.018667v-166.570667c0-21.888 17.962667-39.68 39.893333-39.68z m-1117.952 0a39.594667 39.594667 0 0 1 39.850666 39.68c0 22.144-17.92 39.893333-39.850666 39.893334H1006.506667v232.533333c0 22.058667-17.92 39.850667-39.850667 39.850667a39.850667 39.850667 0 0 1-39.68-39.893334v-232.533333h-76.501333a39.850667 39.850667 0 0 1-39.850667-39.850667c0-21.888 17.92-39.68 39.850667-39.68z m344.106666 0a39.552 39.552 0 0 1 39.68 39.68 39.594667 39.594667 0 0 1-39.68 39.893334h-175.786666v56.533333h152.96c22.101333 0 39.893333 17.92 39.893333 39.850667s-17.962667 39.68-39.893333 39.68H1251.413333v56.576h175.786667c21.930667 0 39.68 17.92 39.68 39.850666a39.594667 39.594667 0 0 1-39.68 39.893334H1211.733333a39.850667 39.850667 0 0 1-39.850666-39.893334v-272.384c0-21.888 17.92-39.68 39.850666-39.68zM1038.506667 128l7.765333 0.341333 0.725333 1.28c4.565333 7.424 21.76 39.68-5.973333 75.050667l-1.450667 1.450667c-5.973333 6.869333-16.853333 22.272-12.501333 41.642666l0.896 3.626667-0.512-2.346667 79.744 129.237334a23.04 23.04 0 0 1-3.626667 28.8l-2.730666 2.346666c-20.650667 14.506667-62.165333 34.432-133.930667 34.432-71.936 0-113.450667-19.925333-134.101333-34.432a23.168 23.168 0 0 1-6.314667-31.146666l79.914667-129.237334c5.589333-21.546667-8.192-38.4-13.781334-44.373333-27.562667-35.370667-10.538667-67.797333-5.973333-75.050667l0.853333-1.28c39.381333-2.133333 65.450667 12.544 79.402667 33.365334 11.946667-18.133333 33.152-31.530667 64.170667-33.536L1038.464 128z m178.133333 11.093333c17.749333-14.165333 53.290667-4.949333 80.64 49.450667 0 0 23.893333 35.669333 39.509333 45.269333 11.221333 7.082667 24.832 9.088 42.410667 5.12 20.992-4.736 34.048-10.88 47.488-25.045333 10.837333-11.605333 25.898667-17.92 35.498667 1.621333 4.181333 8.362667 11.776 20.864-1.621334 42.069334a81.92 81.92 0 0 1-10.666666 12.842666c-6.016 6.186667-10.197333 10.88-12.16 15.786667 3.968 11.776 7.594667 21.546667 10.837333 29.354667l20.309333 45.312c3.84-3.072 7.424-6.186667 11.093334-9.429334a15.018667 15.018667 0 0 1 20.821333 0.554667 14.165333 14.165333 0 0 1-0.725333 20.266667 253.824 253.824 0 0 1-172.16 66.346666A254.506667 254.506667 0 0 1 1156.266667 372.266667a14.634667 14.634667 0 0 1-4.565334-9.941334 13.525333 13.525333 0 0 1 4.010667-10.325333 15.189333 15.189333 0 0 1 20.821333-0.554667c4.693333 4.352 12.373333 10.325333 22.656 18.133334 19.029333-28.629333 31.701333-69.418667 35.882667-95.317334-8.704 5.973333-28.8 26.24-53.802667 10.496-44.373333-27.904-46.421333-39.893333-11.776-89.002666 2.133333-2.858667 33.493333-45.824 47.104-56.704z m583.168-5.845333c30.250667 10.88 84.992 42.965333 77.909333 79.914667-8.149333 42.581333-18.304 55.082667-18.304 111.445333-0.170667 56.362667 2.005333 96.256 4.906667 109.482667h-33.706667c3.413333-13.226667 18.474667-140.288-13.781333-140.288-32.256 0.213333-61.994667 140.288-154.026667 140.288-105.813333-0.213333-141.738667-13.056-139.008-29.184 3.285333-19.584 87.338667-58.368 131.413334-58.709334 15.573333 0 25.173333 18.474667 36.778666 12.842667 105.429333-50.901333 49.834667-170.666667 107.818667-225.792z m330.538667 4.522667a116.352 116.352 0 0 1 115.968 108.202666l6.869333 97.706667a80.298667 80.298667 0 0 1-80.085333 85.845333H1992.96a80.384 80.384 0 0 1-79.914667-85.888l6.912-97.664a116.224 116.224 0 0 1 115.968-108.202666zM1328.213333 362.496c-26.794667 0-52.010667 16.64-59.605333 39.509333 19.029333 5.077333 29.525333 7.808 59.264 7.808 19.754667 0.170667 39.125333-2.389333 58.538667-7.466666-7.978667-25.898667-29.738667-39.850667-58.197334-39.850667z m712.021334-143.701333c-0.170667-10.496-38.058667-10.496-38.058667 0v2.730666a80.896 80.896 0 0 0 161.834667 0v-2.730666c0-10.496-38.058667-10.496-38.058667 0v2.730666c0 23.722667-19.413333 42.922667-42.965333 42.922667a43.008 43.008 0 0 1-42.752-42.922667z" fill="#FB7701" p-id="26982"></path></svg>