<?xml version="1.0" standalone="no"?><!DOCTYPE svg PUBLIC "-//W3C//DTD SVG 1.1//EN" "http://www.w3.org/Graphics/SVG/1.1/DTD/svg11.dtd"><svg t="1752380842004" class="icon" viewBox="0 0 1024 1024" version="1.1" xmlns="http://www.w3.org/2000/svg" p-id="25997" xmlns:xlink="http://www.w3.org/1999/xlink" width="200" height="200"><path d="M172.157205 2.235808h679.68559c113.279441 0 169.921397 56.641956 169.921397 169.921397v679.68559c0 113.279441-56.641956 169.921397-169.921397 169.921397h-679.68559c-113.279441 0-169.921397-56.641956-169.921397-169.921397v-679.68559c0-113.279441 56.641956-169.921397 169.921397-169.921397z" fill="#5CBE54" p-id="25998"></path><path d="M868.530865 222.76248c-15.614882 0-31.153747 0-46.580821-0.411388-37.561572-0.594725-76.276821-1.082131-114.54938 1.641083-18.226306-93.447825-99.967441-160.978166-195.172612-161.246463-95.20517-0.272769-177.326393 66.788052-196.093764 160.128559-36.515214-2.611424-73.110917-1.752873-108.472454-0.970341-17.475074 0.371144-35.625362 0.782533-53.288244 0.782533h-37.820926V956.925764H642.526463c146.355983-0.617083 264.598917-119.588891 264.312734-265.949345V222.76248h-38.308332z" fill="#000000" p-id="25999"></path><path d="M535.842655 532.940576c0.634969-79.102882 65.164856-142.765275 144.263266-142.344943 79.102882 0.424803 142.94414 64.780297 142.733974 143.883179-0.210166 79.102882-64.391266 143.118533-143.494148 143.118533-79.527686-0.429275-143.708786-65.129083-143.503092-144.656769z m-30.483004 98.339773c2.124017-3.54152 4.212262-7.230603 6.184244-11.103021 1.900437 3.648838 4.024454 7.378166 6.33628 11.103021a122.634061 122.634061 0 0 0-12.520524 0z" fill="#FFFFFF" p-id="26000"></path><path d="M383.508122 227.457677c14.962026-59.266795 68.451493-100.65607 129.574009-100.267039 61.122515 0.389031 114.07986 42.457991 128.290655 101.908122a385.444332 385.444332 0 0 0-128.970341 34.76234 367.937956 367.937956 0 0 0-128.930096-36.403423h0.035773z" fill="#5CBE54" p-id="26001"></path><path d="M511.69593 667.464664a68.715319 68.715319 0 0 1 57.907424 28.50655 3063.521817 3063.521817 0 0 1-29.441118 31.820017l-28.466306 30.630568-28.50655-30.630568-29.400873-31.4131a70.392175 70.392175 0 0 1 57.907423-28.913467z" fill="#FFC968" p-id="26002"></path><path d="M200.507249 532.940576c0.634969-79.093939 65.155913-142.760803 144.254323-142.344943 79.093939 0.420332 142.939668 64.76241 142.742917 143.860821-0.196751 79.093939-64.359965 143.118533-143.458375 143.140891-79.5411-0.406917-143.744559-65.115668-143.538865-144.656769z" fill="#FFFFFF" p-id="26003"></path><path d="M344.046114 722.465537a187.0611 187.0611 0 0 0 70.57551-14.237624l7.977363 8.759895a3717.89359 3717.89359 0 0 0 33.4611 35.585118c11.255057 11.849782 22.358079 23.811354 33.425328 35.625362l21.351965 23.140612 21.351965-23.104839c11.067249-11.925799 22.246288-23.847127 33.425327-35.661135 11.179039-11.814009 22.358079-23.775581 33.461101-35.585118l8.572087-8.424524a187.731843 187.731843 0 0 0 253.764192-131.389485v113.950184c0.268297 121.538515-97.941799 220.334393-219.480314 220.786026H161.456629V579.521397c21.025537 83.789135 96.202341 142.644541 182.589485 142.94414zM678.223371 343.420087a186.613939 186.613939 0 0 0-166.567685 102.771144 188.179004 188.179004 0 0 0-350.239302 40.172996V268.220926c14.237624 0 28.059389 0 42.744175-0.447162 38.232314-0.482934 77.765869-1.006114 116.445345 1.006114l51.352035 3.912663c54.924856 5.965135 98.299528 19.004367 136.531843 41.027075l3.541519 2.052471 3.577293-2.052471c31.672454-19.004367 76.647965-31.896035 136.008664-39.609572l51.387808-4.471616c41.103092-2.571179 83.654987-2.235808 124.905641-1.93621h33.537118v220.786027c-20.251948-84.862323-95.97876-144.817747-183.224454-145.068158z" fill="#5CBE54" p-id="26004"></path><path d="M660.672279 641.489048c58.059459 0 105.123214-47.063755 105.123214-105.118742 0-58.054987-47.063755-105.118742-105.123214-105.118743h-1.117903l-1.07766 0.371144a11.179039 11.179039 0 0 1-2.835004 0h-15.762446l10.061136 11.737992a39.873397 39.873397 0 1 1-67.033992 40.951056l-5.553746-13.262812-7.118812 12.48028a105.454114 105.454114 0 0 0 90.438427 157.959825z m-298.551895 0c57.871651-0.183336 104.662638-47.206847 104.559791-105.082969a103.705712 103.705712 0 0 0-103.965066-104.595564h-20.605205l10.061135 11.737992a39.873397 39.873397 0 1 1-67.338061 40.763248l-5.549275-13.262812-7.083039 12.48028a104.711825 104.711825 0 0 0 89.91972 157.959825z" fill="#000000" p-id="26005"></path></svg>