<?xml version="1.0" standalone="no"?><!DOCTYPE svg PUBLIC "-//W3C//DTD SVG 1.1//EN" "http://www.w3.org/Graphics/SVG/1.1/DTD/svg11.dtd"><svg t="1752380578393" class="icon" viewBox="0 0 4299 1024" version="1.1" xmlns="http://www.w3.org/2000/svg" p-id="7491" xmlns:xlink="http://www.w3.org/1999/xlink" width="839.6484375" height="200"><path d="M2494.224444 544.785404c0-101.094726-43.27878-190.416396-189.648588-190.416396-75.091627 0-134.750312 21.396251-167.075031 40.130767l23.699675 81.131717c29.765359-18.683329 77.292677-34.090677 122.132667-34.090677 74.093477-0.102374 86.250437 41.819945 86.250437 68.770007v6.475181c-161.751562-0.255936-264.023594 55.64049-264.023594 169.429643 0 69.563409 51.929418 134.775906 142.658735 134.775906 55.35896 0 102.144064-22.343214 130.092277-57.636791h2.712922s18.427393 77.087928 120.315521 47.629693c-5.169908-32.273532-7.115021-66.287428-7.115021-107.646688v-158.552362z m-120.673832 106.750912c0 8.189953-0.665434 16.635841-3.071232 23.904424-9.341665 31.147413-41.461635 57.2017-81.43884 57.201699-33.757961 0-60.221745-19.092827-60.221745-59.121219 0-61.219895 67.592702-78.060485 144.731817-77.650988M17.83874 216.803399S123.489128 649.053737 140.304124 719.077831c19.783854 81.822744 55.205399 112.099975 157.451837 91.932216l66.031492-268.041789c16.687028-66.389803 28.050587-114.019495 38.825494-181.688978h1.842739c7.473332 68.334916 18.248238 115.299175 31.915221 181.91932 0 0 26.950062 121.748763 40.949763 185.553612 13.564609 63.779255 51.87823 104.012397 152.205149 82.257835L786.72172 216.777806H659.803049l-53.951312 257.03654c-14.28123 74.477381-27.282779 133.137916-37.366658 201.370458h-1.84274c-9.085729-67.515921-20.654036-123.745064-35.523919-196.712422L475.247588 216.803399h-132.395701l-59.633092 255.014646c-17.019745 77.855736-32.938965 140.27853-42.92047 206.386804H238.532367a7529.893527 7529.893527 0 0 0-39.08143-215.907623S164.054986 279.686878 151.539715 216.777806M1140.374106 544.785404c0-101.094726-43.381155-190.416396-189.750962-190.416396-74.886878 0-134.647938 21.396251-166.972657 40.130767l23.699675 81.131717c29.662984-18.683329 77.139115-34.090677 122.132667-34.090677 74.093477-0.102374 86.250437 41.819945 86.250438 68.770007v6.475181c-161.751562-0.255936-264.125969 55.64049-264.125969 169.429643 0 69.563409 52.134166 134.775906 142.453987 134.775906 55.870832 0 102.246438-22.343214 130.194651-57.636791h2.815296s18.529768 77.087928 120.289928 47.629693c-5.221095-32.273532-6.987053-66.287428-6.987054-107.646688v-158.552362z m-120.801799 106.750912c0 8.189953-0.665434 16.635841-2.968858 23.904424-9.418445 31.147413-41.538415 57.2017-81.643589 57.201699-33.527618 0-60.11937-19.092827-60.11937-59.121219 0-61.219895 67.618295-78.060485 144.757411-77.650988M1206.226443 216.803399V810.805299h120.776206V216.777806h-120.801799zM2864.896576 216.803399v438.264834c0 60.503274 11.363559 102.68153 35.805448 128.505474 21.447438 22.675931 56.56186 37.417846 98.381805 37.417845 35.882229 0 70.996651-6.910272 87.606898-12.924769l-1.484429-94.338015a193.180505 193.180505 0 0 1-46.042889 5.349063c-41.231292 0-54.847088-26.105474-54.847088-80.44069v-167.766059h105.189702v-113.507623h-105.189702V216.803399M2552.731417 364.683229v446.301225h124.871182v-228.550862c0-12.310522 0.767808-22.931867 2.712922-32.75981 9.316071-48.218345 45.889328-78.725919 98.586553-78.725919 14.716321 0 24.697826 1.637991 35.805449 3.352762V357.286678a132.421295 132.421295 0 0 0-27.129218-2.55936c-46.708323 0-99.687078 29.688578-122.030292 94.286828h-3.071232V364.708823M1397.129118 364.683229v446.301225h121.671982V549.033942c0-12.284929 1.356461-24.851387 5.681779-36.214947C1534.387603 486.27843 1558.931867 455.566108 1598.32042 455.566108c48.986153 0 72.122769 41.333667 72.122769 100.992352v254.425994h121.339265V545.911522c0-11.568308 1.637991-25.747163 5.04194-36.010197 9.725569-30.072482 36.317321-54.309623 73.044139-54.309623 49.498025 0 73.453637 40.437891 73.453636 110.794701v244.623644h121.262485V547.831042c0-138.256636-70.331217-193.103724-150.183254-193.103724-35.114421 0-63.062634 8.650637-88.169958 24.134766-21.242689 13.027143-39.874831 31.377756-56.561859 55.410148h-1.84274c-19.195201-48.03919-64.316721-79.544914-123.233191-79.544914-75.577906 0-109.898925 38.134466-130.092277 70.382405h-1.84274V364.708823" fill="#0071CE" p-id="7492"></path><path d="M3742.910672 344.643439c23.853237 0 43.944214-12.464084 46.580355-28.460085l23.648488-267.939415C3813.139515 21.754561 3781.889728 0 3742.910672 0c-39.183804 0-70.228843 21.728968-70.228842 48.243939l23.853236 267.939415c2.533767 15.996001 22.522369 28.460085 46.375606 28.460085zM3597.794951 428.488078c11.824244-20.935566 11.133217-44.174556-1.63799-54.514371l-220.821595-154.457386c-22.957461-13.385454-57.355261 2.55936-77.036741 36.368508-19.604699 33.783554-15.637691 71.662084 6.859086 84.791602l244.495676 113.328468c15.637691 5.886528 36.086978-5.016346 48.141564-25.747163M3888.0008 428.257736c12.515271 20.730817 32.964559 31.608098 48.192752 26.054286l244.495676-113.635591c22.701525-13.411047 26.105474-50.931267 6.910272-84.689228-19.630292-33.783554-54.207248-49.651587-77.139115-36.522069l-220.872782 154.27823c-12.259335 10.493377-13.129518 33.834741-1.305274 54.71912M3742.910672 679.305374c23.853237 0 43.944214 12.464084 46.580355 28.460085l23.648488 267.939415c0 26.540565-31.249788 48.03919-70.228843 48.03919-39.183804 0-70.228843-21.498625-70.228842-48.03919l23.853236-267.913822c2.533767-16.021595 22.522369-28.485679 46.375606-28.485678zM3888.0008 595.716671c12.515271-20.782004 32.964559-31.864034 48.192752-25.849538l244.495676 113.456436c22.701525 13.129518 26.105474 50.956861 6.910272 84.766009-19.630292 33.527618-54.207248 49.498025-77.139115 36.342914l-220.872782-154.457386c-12.259335-10.416596-13.129518-33.655586-1.305274-54.258435M3597.794951 595.486328c11.824244 20.884379 11.133217 44.046588-1.63799 54.514372l-220.821595 154.227043c-22.957461 13.385454-57.355261-2.610547-77.036741-36.163759-19.604699-33.757961-15.637691-71.662084 6.859086-84.766008l244.495676-113.456436c15.637691-5.963309 36.086978 5.016346 48.141564 25.644788zM4252.223344 780.937566h3.045639c4.12057 0 5.809748 1.305274 6.270432 4.606848 0.895776 3.659885 1.356461 6.142464 2.252237 7.166208h7.857236c-0.691027-0.767808-1.586803-2.764109-2.047488-7.370957-0.895776-3.992602-2.917671-6.219245-5.809748-7.012647v-0.742214c3.967008-0.895776 6.270432-3.557511 6.270432-6.859085 0-2.968858-1.356461-5.11872-2.712921-6.475182a21.242689 21.242689 0 0 0-10.672532-2.252237 49.651587 49.651587 0 0 0-11.414746 1.100525v29.611797h6.961459v-11.773056z m0.204749-13.487828l3.557511-0.486279c4.197351 0 6.449588 1.945114 6.449587 4.658036 0 3.045639-3.045639 4.453287-6.910272 4.453286h-3.096826v-8.625043z m4.453287-20.116571c-17.147713 0-30.763509 13.411047-30.763509 29.842139 0 16.84059 13.615796 30.251637 30.763509 30.251637 17.378055 0 30.55876-13.411047 30.55876-30.251637 0-16.431092-13.180705-29.842139-30.55876-29.842139z m0 6.04009c13.180705 0 22.983054 10.672532 22.983054 23.802049 0 13.231892-9.802349 24.237141-22.983054 24.006798-13.180705 0-23.187803-10.749313-23.187803-24.006798 0-13.129518 10.007098-23.802049 22.983054-23.802049" fill="#FFC220" p-id="7493"></path></svg>