<?xml version="1.0" standalone="no"?><!DOCTYPE svg PUBLIC "-//W3C//DTD SVG 1.1//EN" "http://www.w3.org/Graphics/SVG/1.1/DTD/svg11.dtd"><svg t="1752381642586" class="icon" viewBox="0 0 3692 1024" version="1.1" xmlns="http://www.w3.org/2000/svg" p-id="50240" xmlns:xlink="http://www.w3.org/1999/xlink" width="721.09375" height="200"><path d="M0 249.273441h219.659834l127.916267 327.256869 129.576974-327.256869h213.88225l-322.065417 774.726559h-215.235935l88.157-205.285652zM913.863061 236.252944c-165.051897 0-269.397296 148.026167-269.397296 295.43829 0 165.875273 114.393371 297.392063 266.271261 297.392063 113.27693 0 155.980811-69.023986 155.980811-69.023986V813.802006h191.609245V249.301352h-191.609245v51.314435s-47.644134-64.348888-152.854776-64.348888z m40.75011 181.421718c76.155255 0 115.45399 60.259922 115.45399 114.630615 0 58.557348-42.103794 116.012211-115.45399 116.012211-60.790231 0-115.733101-49.68164-115.733101-113.514174 0-64.753598 44.183166-117.128652 115.733101-117.128652zM1324.308766 813.815962v-813.815962h200.401221v302.555604s47.588312-66.232883 147.286524-66.232883c121.943306 0 193.381596 90.850414 193.381596 220.692543V813.802006h-198.921936V505.887484c0-43.931967-20.933275-86.384649-68.340166-86.384649-48.258177 0-73.406018 43.094636-73.406018 86.384649v307.928478zM2207.06498 236.322721c-189.027475 0-301.578718 143.727867-301.578717 297.71304 0 175.239424 136.275621 295.047536 302.276493 295.047536 160.907109 0 301.718273-114.36546 301.718273-292.102922 0-194.484082-147.426079-300.657654-302.416049-300.657654z m1.800262 183.012648c66.763192 0 112.955953 55.612734 112.955953 114.909725 0 50.574793-43.038814 112.955953-112.955953 112.955953-64.055822 0-112.146533-51.384213-112.146533-113.514174 0-59.841256 39.9686-114.351505 112.146533-114.351504zM2843.324902 236.322721c-189.013519 0-301.564762 143.727867-301.564762 297.71304 0 175.239424 136.275621 295.047536 302.276493 295.047536 160.907109 0 301.704317-114.36546 301.704318-292.102922 0-194.484082-147.412124-300.657654-302.416049-300.657654z m1.814217 183.012648c66.763192 0 112.955953 55.612734 112.955953 114.909725 0 50.574793-43.052769 112.955953-112.969908 112.955953-64.055822 0-112.132577-51.384213-112.132578-113.514174 0-59.841256 39.9686-114.351505 112.132578-114.351504z" fill="#5F01D1" p-id="50241"></path><path d="M3303.870911 692.737898m-133.065852 0a133.065853 133.065853 0 1 0 266.131705 0 133.065853 133.065853 0 1 0-266.131705 0Z" fill="#5F01D1" p-id="50242"></path><path d="M3480.673354 510.771915H3241.098997l212.626254-510.771915H3692.392499z" fill="#5F01D1" p-id="50243"></path></svg>